<?xml version="1.0" encoding="UTF-8" standalone="no"?>
<!DOCTYPE svg PUBLIC "-//W3C//DTD SVG 1.0//EN" "http://www.w3.org/TR/2001/REC-SVG-20010904/DTD/svg10.dtd">
<!-- Generated by Microsoft Visio 11.0, SVG Export, v1.0 connector.svg Page-1 -->
<svg xmlns="http://www.w3.org/2000/svg" xmlns:v="http://schemas.microsoft.com/visio/2003/SVGExtensions/" width="3.14961in"
		height="3.14961in" viewBox="0 0 226.772 226.772" xml:space="preserve" color-interpolation-filters="sRGB" class="st3">
	<v:documentProperties v:langID="1033" v:metric="true" v:viewMarkup="false"/>

	<style type="text/css">
	<![CDATA[
		.st1 {stroke:#000000;stroke-linecap:butt;stroke-width:14.1732}
		.st2 {stroke:#000000;stroke-linecap:round;stroke-linejoin:round;stroke-width:14.1732}
		.st3 {fill:none;fill-rule:evenodd;font-size:12;overflow:visible;stroke-linecap:square;stroke-miterlimit:3}
	]]>
	</style>

	<g v:mID="0" v:index="1" v:groupContext="foregroundPage">
		<title>Page-1</title>
		<v:pageProperties v:drawingScale="1" v:pageScale="1" v:drawingUnits="0" v:shadowOffsetX="9" v:shadowOffsetY="-9"
				v:shadowType="1"/>
		<g id="shape1-1" v:mID="1" v:groupContext="shape" transform="translate(-0.172692,-113.373) rotate(-0.0436322)">
			<title>Sheet.1</title>
			<path d="M0 226.77 L92.1 226.77" class="st1"/>
		</g>
		<g id="shape3-4" v:mID="3" v:groupContext="shape" transform="translate(375.906,8.77932) rotate(75.9638)">
			<title>Sheet.3</title>
			<path d="M0 226.77 L29.22 226.77" class="st2"/>
		</g>
		<g id="shape2-7" v:mID="2" v:groupContext="shape" transform="translate(382.333,192.223) rotate(104.708)">
			<title>Sheet.2</title>
			<path d="M0 226.77 L29.31 226.77" class="st2"/>
		</g>
		<g id="shape7-10" v:mID="7" v:groupContext="shape" transform="translate(346.026,285.936) rotate(122.877)">
			<title>Sheet.7</title>
			<path d="M0 226.77 L25.5 226.77" class="st2"/>
		</g>
		<g id="shape8-13" v:mID="8" v:groupContext="shape" transform="translate(214.801,-174.484) rotate(26.5651)">
			<title>Sheet.8</title>
			<path d="M0 226.77 L31.69 226.77" class="st2"/>
		</g>
		<g id="shape9-16" v:mID="9" v:groupContext="shape" transform="translate(11.9705,-4.40554) rotate(-26.5651)">
			<title>Sheet.9</title>
			<path d="M0 226.77 L31.69 226.77" class="st2"/>
		</g>
		<g id="shape10-19" v:mID="10" v:groupContext="shape" transform="translate(30.0392,-14.489) rotate(-14.0362)">
			<title>Sheet.10</title>
			<path d="M0 226.77 L29.22 226.77" class="st2"/>
		</g>
		<g id="shape11-22" v:mID="11" v:groupContext="shape" transform="translate(140.04,-198.741) rotate(14.0362)">
			<title>Sheet.11</title>
			<path d="M0 226.77 L29.22 226.77" class="st2"/>
		</g>
		<g id="shape5-25" v:mID="5" v:groupContext="shape" transform="translate(318.868,92.126) rotate(90)">
			<title>Sheet.5</title>
			<path d="M0 226.77 L42.52 226.77" class="st2"/>
		</g>
		<g id="shape12-28" v:mID="12" v:groupContext="shape" transform="translate(305.095,8.9989) rotate(76.0209)">
			<title>Sheet.12</title>
			<path d="M0 226.77 L29.21 226.77" class="st2"/>
		</g>
		<g id="shape13-31" v:mID="13" v:groupContext="shape" transform="translate(312.152,189.426) rotate(103.979)">
			<title>Sheet.13</title>
			<path d="M0 226.77 L29.21 226.77" class="st2"/>
		</g>
		<g id="shape14-34" v:mID="14" v:groupContext="shape" transform="translate(259.824,-82.8609) rotate(56.4343)">
			<title>Sheet.14</title>
			<path d="M0 226.77 L25.71 226.77" class="st2"/>
		</g>
		<g id="shape15-37" v:mID="15" v:groupContext="shape" transform="translate(273.725,288.782) rotate(123.69)">
			<title>Sheet.15</title>
			<path d="M0 226.77 L25.55 226.77" class="st2"/>
		</g>
		<g id="shape6-40" v:mID="6" v:groupContext="shape" transform="translate(330.418,-83.2706) rotate(56.3099)">
			<title>Sheet.6</title>
			<path d="M0 226.77 L25.55 226.77" class="st2"/>
		</g>
		<g id="shape16-43" v:mID="16" v:groupContext="shape" transform="translate(56.6929,-205.408)">
			<title>Sheet.16</title>
			<path d="M0 226.77 L28.76 226.77" class="st2"/>
		</g>
		<g id="shape17-46" v:mID="17" v:groupContext="shape" transform="translate(57.0019,-21.4413)">
			<title>Sheet.17</title>
			<path d="M0 226.77 L28.76 226.77" class="st2"/>
		</g>
		<g id="shape18-49" v:mID="18" v:groupContext="shape" transform="translate(259.052,310.789) rotate(123.917)">
			<title>Sheet.18</title>
			<path d="M0 226.77 L25.4 226.77" class="st2"/>
		</g>
		<g id="shape19-52" v:mID="19" v:groupContext="shape" transform="translate(245.092,-104.854) rotate(56.1799)">
			<title>Sheet.19</title>
			<path d="M0 226.77 L25.46 226.77" class="st2"/>
		</g>
		<g id="shape20-55" v:mID="20" v:groupContext="shape" transform="translate(389.764,92.126) rotate(90)">
			<title>Sheet.20</title>
			<path d="M0 226.77 L42.52 226.77" class="st2"/>
		</g>
		<g id="shape4-58" v:mID="4" v:groupContext="shape" transform="translate(155.733,-113.402) rotate(-0.0436322)">
			<title>Sheet.4</title>
			<path d="M0 226.77 L70.84 226.77" class="st1"/>
		</g>
	</g>
</svg>
