<?xml version="1.0" encoding="UTF-8" standalone="no"?>
<!DOCTYPE svg PUBLIC "-//W3C//DTD SVG 1.0//EN" "http://www.w3.org/TR/2001/REC-SVG-20010904/DTD/svg10.dtd">
<!-- Generated by Microsoft Visio 11.0, SVG Export, v1.0 connector.svg Page-1 -->
<svg xmlns="http://www.w3.org/2000/svg" xmlns:v="http://schemas.microsoft.com/visio/2003/SVGExtensions/" width="6.29921in"
		height="2.51969in" viewBox="0 0 453.543 181.417" xml:space="preserve" color-interpolation-filters="sRGB" class="st3">
	<v:documentProperties v:langID="1033" v:metric="true" v:viewMarkup="false"/>

	<style type="text/css">
	<![CDATA[
		.st1 {stroke:#000000;stroke-linecap:round;stroke-linejoin:round;stroke-width:11.3386}
		.st2 {stroke:#000000;stroke-linecap:butt;stroke-width:11.3386}
		.st3 {fill:none;fill-rule:evenodd;font-size:12;overflow:visible;stroke-linecap:square;stroke-miterlimit:3}
	]]>
	</style>

	<g v:mID="0" v:index="1" v:groupContext="foregroundPage">
		<title>Page-1</title>
		<v:pageProperties v:drawingScale="1" v:pageScale="1" v:drawingUnits="0" v:shadowOffsetX="9" v:shadowOffsetY="-9"
				v:shadowType="1"/>
		<g id="shape3-1" v:mID="3" v:groupContext="shape" transform="translate(454.779,-75.7796) rotate(44.8077)">
			<title>Sheet.3</title>
			<path d="M0 181.42 L18.65 181.42" class="st1"/>
		</g>
		<g id="shape2-4" v:mID="2" v:groupContext="shape" transform="translate(464.832,246.733) rotate(136.589)">
			<title>Sheet.2</title>
			<path d="M0 181.42 L19.71 181.42" class="st1"/>
		</g>
		<g id="shape7-7" v:mID="7" v:groupContext="shape" transform="translate(390.977,297.716) rotate(158.983)">
			<title>Sheet.7</title>
			<path d="M0 181.42 L45.47 181.42" class="st1"/>
		</g>
		<g id="shape8-10" v:mID="8" v:groupContext="shape" transform="translate(218.889,-154.087) rotate(7.07784)">
			<title>Sheet.8</title>
			<path d="M0 181.42 L87.6 181.42" class="st1"/>
		</g>
		<g id="shape9-13" v:mID="9" v:groupContext="shape" transform="translate(174.182,-24.5654) rotate(-7.07784)">
			<title>Sheet.9</title>
			<path d="M0 181.42 L87.6 181.42" class="st1"/>
		</g>
		<g id="shape10-16" v:mID="10" v:groupContext="shape" transform="translate(98.3652,-20.2026) rotate(-3.55247)">
			<title>Sheet.10</title>
			<path d="M0 181.42 L87.1 181.42" class="st1"/>
		</g>
		<g id="shape11-19" v:mID="11" v:groupContext="shape" transform="translate(120.847,-160.518) rotate(3.55247)">
			<title>Sheet.11</title>
			<path d="M0 181.42 L87.1 181.42" class="st1"/>
		</g>
		<g id="shape5-22" v:mID="5" v:groupContext="shape" transform="translate(286.299,74.5185) rotate(90)">
			<title>Sheet.5</title>
			<path d="M0 181.42 L32.38 181.42" class="st1"/>
		</g>
		<g id="shape12-25" v:mID="12" v:groupContext="shape" transform="translate(265.276,-13.3668) rotate(68.5649)">
			<title>Sheet.12</title>
			<path d="M0 181.42 L23.19 181.42" class="st1"/>
		</g>
		<g id="shape13-28" v:mID="13" v:groupContext="shape" transform="translate(273.751,173.197) rotate(111.435)">
			<title>Sheet.13</title>
			<path d="M0 181.42 L23.19 181.42" class="st1"/>
		</g>
		<g id="shape14-31" v:mID="14" v:groupContext="shape" transform="translate(204.721,-94.4186) rotate(43.6994)">
			<title>Sheet.14</title>
			<path d="M0 181.42 L23.61 181.42" class="st1"/>
		</g>
		<g id="shape15-34" v:mID="15" v:groupContext="shape" transform="translate(221.435,259.94) rotate(136.435)">
			<title>Sheet.15</title>
			<path d="M0 181.42 L23.49 181.42" class="st1"/>
		</g>
		<g id="shape6-37" v:mID="6" v:groupContext="shape" transform="translate(346.79,-133.265) rotate(20.4299)">
			<title>Sheet.6</title>
			<path d="M0 181.42 L46.38 181.42" class="st1"/>
		</g>
		<g id="shape16-40" v:mID="16" v:groupContext="shape" transform="translate(62.3622,-160.787)">
			<title>Sheet.16</title>
			<path d="M0 181.42 L48.52 181.42" class="st1"/>
		</g>
		<g id="shape17-43" v:mID="17" v:groupContext="shape" transform="translate(62.3622,-20.6894)">
			<title>Sheet.17</title>
			<path d="M0 181.42 L49.47 181.42" class="st1"/>
		</g>
		<g id="shape18-46" v:mID="18" v:groupContext="shape" transform="translate(203.849,276.664) rotate(136.68)">
			<title>Sheet.18</title>
			<path d="M0 181.42 L23.4 181.42" class="st1"/>
		</g>
		<g id="shape19-49" v:mID="19" v:groupContext="shape" transform="translate(187.067,-111.13) rotate(43.4242)">
			<title>Sheet.19</title>
			<path d="M0 181.42 L23.44 181.42" class="st1"/>
		</g>
		<g id="shape20-52" v:mID="20" v:groupContext="shape" transform="translate(530.079,82.2047) rotate(90)">
			<title>Sheet.20</title>
			<path d="M0 181.42 L17.01 181.42" class="st1"/>
		</g>
		<g id="shape21-55" v:mID="21" v:groupContext="shape" transform="translate(2.83465,-90.7087)">
			<title>Sheet.21</title>
			<path d="M0 181.42 L96.38 181.42" class="st2"/>
		</g>
		<g id="shape1-58" v:mID="1" v:groupContext="shape" transform="translate(354.331,-90.7087)">
			<title>Sheet.1</title>
			<path d="M0 181.42 L96.38 181.42" class="st2"/>
		</g>
		<g id="shape4-61" v:mID="4" v:groupContext="shape" transform="translate(508.253,185.485) rotate(118.395)">
			<title>Sheet.4</title>
			<path d="M0 181.42 L17.88 181.42" class="st1"/>
		</g>
		<g id="shape22-64" v:mID="22" v:groupContext="shape" transform="translate(500.645,-18.5222) rotate(62.2061)">
			<title>Sheet.22</title>
			<path d="M0 181.42 L18.24 181.42" class="st1"/>
		</g>
	</g>
</svg>
